<svg xmlns="http://www.w3.org/2000/svg" width="126" height="40"><g data-name="Group 40" transform="translate(-73 -30)"><rect data-name="Rectangle 38" width="5" height="5" rx="1" transform="translate(73 48)" fill="#fff"/><rect data-name="Rectangle 43" width="5" height="5" rx="1" transform="translate(194 48)" fill="#f23849"/><rect data-name="Rectangle 39" width="7" height="20" rx="2" transform="translate(80 40)" fill="#f23849"/><rect data-name="Rectangle 44" width="7" height="20" rx="2" transform="translate(185 40)" fill="#fff"/><rect data-name="Rectangle 40" width="7" height="30" rx="2" transform="translate(89 35)" fill="#f23849"/><rect data-name="Rectangle 45" width="7" height="30" rx="2" transform="translate(176 35)" fill="#fff"/><rect data-name="Rectangle 41" width="7" height="40" rx="2" transform="translate(98 30)" fill="#f23849"/><rect data-name="Rectangle 46" width="7" height="40" rx="2" transform="translate(167 30)" fill="#fff"/><rect data-name="Rectangle 42" width="24" height="5" rx="1" transform="translate(109 48)" fill="#fff"/><rect data-name="Rectangle 47" width="24" height="5" rx="1" transform="translate(139 48)" fill="#f23849"/><text data-name="The Best" transform="translate(136 43)" fill="#f23849" font-size="11" font-family="Montserrat-Medium, Montserrat" font-weight="500"><tspan x="-26.785" y="0">THE BEST</tspan></text><text data-name="Fitness Centre" transform="translate(136 63)" fill="#fff" font-size="12" font-family="PragatiNarrow-Regular, Pragati"><tspan x="-29.4" y="0">Fitness Centre</tspan></text></g></svg>