<svg xmlns="http://www.w3.org/2000/svg" width="43.952" height="49.061"><g data-name="Group 16" fill="#f23849"><path data-name="Path 105" d="M40.651 28.107c-2.119-3.42-4.639-6.877-5.689-10.815a22.294 22.294 0 012.371-16.228.7.7 0 00-1.2-.7 23.234 23.234 0 00.218 23.409c.7 1.233 1.48 2.417 2.232 3.615-10.878 2.795-21.679 2.231-32.71.658a35.159 35.159 0 003.449-6.963A28.543 28.543 0 007.938.364c-.377-.813-1.578-.106-1.2.7 3.9 8.416 2.934 17.781-1.668 25.782-3.7 6.427-6.861 14.351-3.882 21.75.331.822 1.679.463 1.344-.37-1.854-4.6-1.079-10.153.589-14.708a28.123 28.123 0 012-4.161c5.362 2.07 8.974 8.026 11.7 12.777 1.019 1.774 1.723 3.889 2.854 5.571.93 1.382 2.088 1.24 3.786.952a.674.674 0 00.487-.487c.938-5.266 4.348-9.666 8.044-13.369 2.029-2.033 4.646-4.879 7.393-6.1a18.61 18.61 0 012.026 4.552 31.709 31.709 0 01.423 14.778c-.194.874 1.148 1.247 1.344.37 1.438-6.459 1.029-14.553-2.527-20.294zm-8.441 4.541c-3.658 3.432-7.2 7.533-8.887 12.333-.467 1.328-.775 3.357-2.55 1.794-.567-.5-.892-1.882-1.244-2.567a64.211 64.211 0 00-4.1-6.922 29.994 29.994 0 00-6.7-7.466c9.071 1.126 18.005 1.44 26.972-.345-1.26 1.031-2.443 2.189-3.491 3.173z"/><path data-name="Path 106" d="M21.946 21.953a.7.7 0 000-1.394.7.7 0 000 1.394z"/><path data-name="Path 107" d="M4.96 34.456a12.494 12.494 0 00-1.725 7.294c.063.89 1.456.9 1.394 0a11.173 11.173 0 011.534-6.591.7.7 0 00-1.203-.703z"/><path data-name="Path 108" d="M3.354 44.085v.048a.7.7 0 001.395 0v-.048a.7.7 0 00-1.395 0z"/></g></svg>