<svg xmlns="http://www.w3.org/2000/svg" width="58.537" height="51.14"><g data-name="Group 17" fill="#f23849"><path data-name="Path 109" d="M56.186 28.074c-4.007-5.024-14.541-5.877-17.255.478a10.433 10.433 0 00-5.016-3.63 12.1 12.1 0 00-12.89 3.014c.015-.241.048-.47.048-.719 0-4.212-.122-9.106 1.414-13.152a6.685 6.685 0 004.574 1.563c3.408-.156 6.632-.433 8-4.051 1.282-3.393-.2-7.319-2.562-9.841-1.664-1.779-2.29-1.827-4.7-1.686a59.715 59.715 0 00-7.1.684c-3.926.7-7.181 6.726-9.068 9.946C6.012 20.266.838 30.793.007 42.024a.7.7 0 00.345.6c14.863 9.786 36.816 11.934 52.354 2.224 5.649-3.534 7.942-11.176 3.48-16.774zm-4.649 15.828c-8.131 4.747-18.12 6.331-27.408 5.521a51 51 0 01-13.854-3.2 46.344 46.344 0 01-6.991-3.394c-2.834-1.681-1.474-5.149-.81-7.918a71.368 71.368 0 016-15.4c2.426-4.8 4.895-9.705 8.333-13.877a10.786 10.786 0 013.343-3.125c1.758-.872 4-.846 5.947-.972 1.763-.114 3.555-.385 5.071.816a8.847 8.847 0 012.641 4.44c.523 2.022.364 4.893-1.47 6.244-1.291.952-3.087.987-4.661 1.131a7.765 7.765 0 01-1.444.122c-1.253-.152-3.467-1.537-2.346-3.109.479-.673 2.513-1 3.281-.976a.7.7 0 000-1.394c-1.68-.045-5.253.947-5.485 3.063a2.655 2.655 0 00-.007.526c-1.466 3.139-1.722 6.716-1.875 10.134-.085 1.868.035 3.773-.1 5.631-.261 3.466-2.663 6.233-5.049 8.634a.7.7 0 00.985.985c2.313-2.327 4.2-4.6 5.01-7.452a.647.647 0 00.164-.131c3.307-3.963 8.021-5.794 13-3.818 1.851.733 3.931 2.166 4.615 4.15.2.594 1.208.729 1.344 0 1.471-7.888 13.493-5.719 16.3.086 2.528 5.216.22 10.51-4.534 13.283z"/><path data-name="Path 110" d="M36.356 37.71a9.1 9.1 0 01-7.243 2.629c-2.85-.176-5.475-.579-7.873-2.206-.744-.505-1.442.7-.7 1.2 2.826 1.916 6.122 2.346 9.479 2.441 2.966.084 5.123-1.137 7.326-3.083.671-.591-.318-1.573-.989-.981z"/><path data-name="Path 111" d="M23.332 32.367a7.189 7.189 0 012.992-2.683.7.7 0 00-.7-1.2 8.492 8.492 0 00-3.492 3.184c-.408.794.794 1.5 1.2.699z"/><path data-name="Path 112" d="M27.861 28.958a.7.7 0 000-1.394.7.7 0 000 1.394z"/></g></svg>