<svg xmlns="http://www.w3.org/2000/svg" width="51.764" height="52.278"><g data-name="Group 10" fill="#f23849"><path data-name="Path 62" d="M49.625.031c-.953.169-1.452 1.067-1.96 1.779-.522.732-.95 1.523-1.451 2.269-1.081 1.6-2.169 1.83-4.019 1.995a74.472 74.472 0 01-8.225.088c-1.408-.033-3.06-.389-3.566 1.265-.952 3.112 4.059 3.065 7.3 2.839-3.086 5.929-5.666 12.036-8.155 18.24a60.633 60.633 0 00-3.611-.837 72.376 72.376 0 00-11.433-2.02c-1.147-4.881-2.553-9.7-3.73-14.568-.005-.021-.018-.032-.023-.051 1.534-.151 3.084-.093 4.593-.365 2.723-.492 2.064-3.582-.491-3.787a39.387 39.387 0 01-6.292-.808 15.688 15.688 0 00-5.855-.7.634.634 0 00-.32.037.57.57 0 00-.358.2 3.317 3.317 0 00-.379 5.368 6.786 6.786 0 004.718 1.041c.149-.019.3-.055.443-.085 1.052 4.667 2.2 9.311 3.323 13.96a12.258 12.258 0 00-7.179 3.884 11.2 11.2 0 002.368 17.108 14.811 14.811 0 002.548 1.279 2.69 2.69 0 00-.969 1.338 2.152 2.152 0 001.9 2.735 2.562 2.562 0 002.96-1.663 2.336 2.336 0 00-.053-1.38 35.187 35.187 0 004.781.446c5.473.18 11.148.212 16.612-.156 1.186-.08 2.532-.146 3.907-.266a2.8 2.8 0 00-.147.283 2.152 2.152 0 001.9 2.735 2.562 2.562 0 002.959-1.663 2.487 2.487 0 00-.362-2.007 13.252 13.252 0 002.133-.676c2.514-1.079 3.111-4.169 2.715-6.641-.91-5.671-6.377-9.156-12.048-11.282 2.631-6.648 5.026-13.369 8.313-19.732 1.832.089 3.765.013 4.989-1.158a24 24 0 002.887-4.367c.438-.7 1.437-1.927 1.411-2.785A1.842 1.842 0 0049.625.031zm-45.393 10.5c-1.38-.38-3.775-2.922-1.479-3.784 2.365-.372 4.486.516 6.756.972 1.028.207 3.67.064 4.528.581 1.621.977-1.368 1.1-2.109 1.167a23.989 23.989 0 00-3.384.531c-1.442.351-2.783.958-4.312.536zm3.922 1.037c.4-.124.81-.249 1.22-.338.016 0 .031 0 .047-.007a.7.7 0 00.009.226c1.146 4.741 2.5 9.426 3.633 14.17q-.779.009-1.543.079c-1.138-4.704-2.302-9.403-3.366-14.127zm2.264 38.628a1.181 1.181 0 01-1.45.645c-.63-.164-.973-.579-.622-1.2a1.682 1.682 0 011.153-.777.588.588 0 00.109.043 1.064 1.064 0 01.81 1.292zm29.964 0a1.181 1.181 0 01-1.45.645c-.63-.164-.972-.579-.622-1.2a1.559 1.559 0 01.811-.668c.153-.021.308-.04.46-.063a1.064 1.064 0 01.801 1.289zm4.5-7.119c-.382 4.5-5.868 4.279-9.4 4.756-4.553.614-9.238.362-13.824.421-7.844.1-22.681-.861-20.143-12.763 2.472-11.592 15.932-8.24 24.05-6.481 6.549 1.304 20.07 5.238 19.318 14.07zM32.856 29.495q-.99-.336-1.966-.62a194.006 194.006 0 018.395-18.664.425.425 0 00.022-.075c.27-.022.509-.04.673-.046.31.007.642.026.984.048-3.167 6.262-5.53 12.842-8.107 19.36zM49.148 4.001a22.393 22.393 0 01-1.9 2.808c-1.531 1.775-3.191 1.988-5.166 1.955h-.012c-.658-.012-1.352-.051-2.086-.068-1.768.064-3.551.029-5.318-.023-1.156-.035-3.861-.286-1.431-1.146 1.066-.377 3.293.055 4.406.037 1.665-.028 3.338-.041 5-.1a5.56 5.56 0 003.054-.639c1.424-.928 1.652-2.858 2.873-3.874 2.668-2.226.922.499.581 1.053z"/><path data-name="Path 63" d="M22.546 30.597a.633.633 0 00-.168.619c0 .012.008.023.01.035a.794.794 0 00.054.143.682.682 0 00.246.3c.614.409 1.2.857 1.773 1.317q-1.026.5-2.05.993c-.888-2.239-2.9-3.7-6.261-4.507-4.6-.821-9.507 2.727-10.522 7.246-1.138 5.062 2.6 8.958 7.37 9.732 4.943.8 8.756-1.386 9.672-6.461a13.1 13.1 0 00.129-4.659q1.424-.684 2.844-1.373c.429.36.856.724 1.286 1.081a.708.708 0 00.8.084.7.7 0 00.3-.15c.555-.471 1.954-1.19 1.727-2.1-.214-.857-1.682-1.614-2.346-2.124a9.406 9.406 0 00-2.714-1.606c-.931-.267-1.582.843-2.15 1.43zm-1.114 8.208c-.492 4.453-3.192 6.889-7.7 6.349-4.114-.493-7.713-3.471-6.765-8.042.769-3.707 4.957-6.961 8.808-6.273 2.166.521 4.677 1.043 5.516 3.531.016.044.018.1.031.144a59.4 59.4 0 01-6.94 2.876c-.849.277-.485 1.624.37 1.344a59.714 59.714 0 006.792-2.79 17.855 17.855 0 01-.112 2.861zm6.781-5.745c-.24.218-.506.424-.763.625-1.106-.931-2.209-1.869-3.382-2.715a1.019 1.019 0 01.473-.328c.253-.046 1.15.627 1.392.778a20.378 20.378 0 012.28 1.64z"/><path data-name="Path 64" d="M40.141 40.992a.7.7 0 001.394 0 5.978 5.978 0 00-2.234-4.839c-.694-.554-1.687.427-.985.985a4.675 4.675 0 011.825 3.854z"/><path data-name="Path 65" d="M40.025 42.791a.7.7 0 000 1.394.7.7 0 000-1.394z"/></g></svg>