<svg xmlns="http://www.w3.org/2000/svg" width="61.339" height="34.473"><g data-name="Group 19" fill="#f23849"><path data-name="Path 120" d="M61.285 17.975c-.039-.535-.112-1.065-.127-1.6a2.871 2.871 0 00-.276-1.773c-.631-.837-1.773-.723-2.733-.7-.027-1.4-.057-2.807-.058-4.21 0-.965.323-2.62-.267-3.481-.967-1.412-3.81-1.235-5.511-1.282-.016-.237-.013-.476-.033-.713C51.966.596 49.998.03 46.527.004c-3.835-.028-4.832 1.326-5.1 5.087-.21 2.967-.285 5.958-.329 8.946-3.659.3-7.573-.124-11.249-.08-3.155.038-6.33.057-9.485.18-.045-2.962-.129-5.924-.336-8.866-.261-3.727-1.255-5.115-5.1-5.087-2.679 0-5.431.257-5.778 3.311a32.05 32.05 0 00-.134 1.62c-1.674.032-4.29-.111-5.264 1.121-1.243 1.572-.669 5.743-.683 7.578v.194a5.715 5.715 0 00-2.287.17c-1.128.478-.708 2.4-.7 3.356.011 1-.347 2.584.9 2.848a8.234 8.234 0 001.949.137 28.143 28.143 0 00.655 6.715c.649 2.566 3.112 2.555 5.509 2.6.021.33.023.669.051 1 .285 3.248 2.063 3.462 4.936 3.51 1.828.03 4.709.671 5.775-1.166.63-1.085.5-2.972.536-4.18.083-2.6.062-5.206.039-7.807v-.623c6.849-.082 13.759.26 20.594-.1a242.13 242.13 0 00.009 6.976c.027 1.5-.224 3.415.262 4.851.828 2.452 3.714 1.908 5.879 1.875 2.445-.037 4.479.122 5.052-2.7a11.719 11.719 0 00.207-1.81c2.277-.044 4.775-.051 5.426-2.508a23.23 23.23 0 00.51-6.406 4.777 4.777 0 002.271-.311c.875-.448.7-1.635.643-2.46zm-59.806 1.1c-.069-.623 0-1.323 0-1.921 0-.374-.014-.749-.013-1.123 0-.1.086-.563-.036-.605a5.264 5.264 0 01.94-.019c.226-.006.452 0 .678.006-.031 1.21-.075 2.476-.1 3.753a6.337 6.337 0 01-1.469-.091zm3.408 6.99a18.915 18.915 0 01-.212-3.4c-.152-2.949-.23-5.9-.208-8.855a25.517 25.517 0 01.227-5.5c.479-1.985 2.406-1.759 4.278-1.8-.059 3.252.249 6.584.186 9.794-.078 3.953-.294 8.121-.132 12.138-2.192-.041-3.533.087-4.139-2.377zm14.089 3.941c-.1 1.513.057 2.593-1.54 2.961a15.036 15.036 0 01-3.11 0 3.656 3.656 0 01-3.784-2.542c-.348-1.278.045-3.195.032-4.533-.031-3.2-.086-6.393-.023-9.593.042-2.116-.024-4.224-.059-6.338-.027-1.673.113-3.339.1-5.011-.027-2.751 1.822-3.381 4.343-3.377a4.376 4.376 0 013.5 1.733c.4.635.206 2.185.246 2.974.083 1.635.115 3.274.164 4.911.093 3.135.165 6.27.2 9.406.023 3.12.137 6.292-.069 9.409zm1.444-10.838q-.014-1.819-.036-3.644c3.149-.122 6.318-.142 9.468-.18 3.669-.043 7.575.38 11.228.081l-.042 3.637c-6.843.367-13.761.024-20.618.106zm30.548-9.387c-.053 2.114-.1 4.223-.059 6.338.059 3 .018 5.989-.017 8.988-.038 3.309.97 7.586-3.718 7.658-.782.012-2.234.3-2.975-.029-2.1-.932-1.718-2.554-1.751-4.263q-.087-4.431-.023-8.862c.039-3.072.116-6.145.213-9.215.1-3.317-.891-9.039 3.891-9 2.84.022 3.93.953 4.4 3.937a25.344 25.344 0 01.039 4.448zm5.783 13.124a15.334 15.334 0 01-.172 3.1c-.6 2.34-2.063 2.214-4.137 2.247-.029-1.482-.158-2.994-.138-4.366a231.39 231.39 0 000-7.771c-.064-3.255.173-6.538.077-9.8a11.561 11.561 0 012.585.224c1.554.426 1.583.579 1.744 2.341.2 2.177.049 4.457.077 6.643.03 2.464.05 4.925-.036 7.382zm1.569-3.615c-.056-1.3-.125-2.581-.14-3.761v-.23c.321 0 .642 0 .964.015.472.017.48-.083.62.284a4.468 4.468 0 01.02 1.111c.022.4.077.792.107 1.189.025.32.041.643.038.964a2.74 2.74 0 00-.018.339.4.4 0 01-.142.038c-.489-.004-.968.041-1.449.051z"/><path data-name="Path 121" d="M12.017 4.935a10.78 10.78 0 00-.253 5.263c.107.879 1.5.89 1.394 0a10.03 10.03 0 01.2-4.893c.348-.824-1-1.184-1.341-.37z"/><path data-name="Path 122" d="M13.942 2.873a.7.7 0 000 1.394.7.7 0 000-1.394z"/><path data-name="Path 123" d="M44.328 4.299a5.176 5.176 0 00-.628 2.455 15.583 15.583 0 00-.085 3.007c.075.887 1.469.895 1.394 0a15.136 15.136 0 01.037-2.5 4.694 4.694 0 01.486-2.257c.534-.723-.675-1.419-1.204-.705z"/><path data-name="Path 124" d="M46.311 2.517a.7.7 0 000 1.394.7.7 0 000-1.394z"/></g></svg>