<svg xmlns="http://www.w3.org/2000/svg" width="45" height="35.144"><defs><style>.a{fill:#f23849}</style></defs><path class="a" d="M19.232 18.062a.659.659 0 01-.63-.467l-2-6.573h-5.993a.659.659 0 110-1.317h6.481a.659.659 0 01.63.467l1.513 4.97 2.21-7.258a.658.658 0 011.26 0l.956 3.141h5.793a.659.659 0 010 1.317h-6.28a.658.658 0 01-.63-.467l-.468-1.538-2.21 7.258a.658.658 0 01-.632.467zm0 0"/><path class="a" d="M43.611 5.544a.659.659 0 10-1.147.647 9.48 9.48 0 011.219 4.63c.008 4.317-2.472 9.119-7.372 14.273a66.338 66.338 0 01-10.2 8.583.846.846 0 01-.958 0 68.061 68.061 0 01-8.92-7.28h6.145v2.669a1.538 1.538 0 001.533 1.534h1.435a1.539 1.539 0 001.537-1.537v-.053a1.542 1.542 0 00.219.018h1.435a1.538 1.538 0 001.537-1.537v-7.517a1.538 1.538 0 00-1.537-1.537H27.1a1.493 1.493 0 00-.219.018V18.4a1.539 1.539 0 00-1.537-1.537h-1.433a1.538 1.538 0 00-1.537 1.537V21H20.3a.659.659 0 100 1.317h2.076v2.759H7.7V22.32h9.619a.659.659 0 100-1.317h-5.8c-2.623-3.628-3.95-7.053-3.944-10.182a9.534 9.534 0 019.524-9.5h.013a9.483 9.483 0 017.417 3.57 1.412 1.412 0 002.2 0 9.484 9.484 0 017.417-3.57h.013a9.477 9.477 0 016.535 2.611.659.659 0 10.905-.957A10.787 10.787 0 0034.159 0h-.015A10.794 10.794 0 0025.7 4.063a.1.1 0 01-.147 0A10.8 10.8 0 0017.112 0H17.1A10.854 10.854 0 006.255 10.818C6.249 14 7.477 17.425 9.907 21H7.7v-2.6a1.538 1.538 0 00-1.537-1.537H4.728A1.538 1.538 0 003.191 18.4v.056a1.542 1.542 0 00-.219-.018H1.537A1.538 1.538 0 000 19.974v7.516a1.538 1.538 0 001.537 1.537h1.435a1.541 1.541 0 00.219-.018v.056A1.538 1.538 0 004.728 30.6h1.435A1.538 1.538 0 007.7 29.065V26.4h6.67a68.333 68.333 0 0010.037 8.37 2.157 2.157 0 002.439 0A67.706 67.706 0 0037.265 26c5.141-5.407 7.744-10.516 7.735-15.182a10.8 10.8 0 00-1.389-5.274zM27.1 19.754h1.435a.22.22 0 01.219.219v7.517a.22.22 0 01-.219.22H27.1a.22.22 0 01-.219-.22v-7.516a.22.22 0 01.219-.22zM23.691 18.4a.22.22 0 01.219-.219h1.435a.22.22 0 01.22.219v10.665a.22.22 0 01-.22.219H23.91a.22.22 0 01-.219-.219zM6.382 29.065a.22.22 0 01-.219.22H4.728a.22.22 0 01-.219-.22v-5.208a.659.659 0 00-1.317 0v3.633a.22.22 0 01-.22.22H1.537a.22.22 0 01-.219-.22v-7.516a.22.22 0 01.219-.219h1.435a.22.22 0 01.219.219v.809a.659.659 0 001.317 0V18.4a.22.22 0 01.22-.219h1.435a.22.22 0 01.219.219zm0 0"/></svg>