<svg xmlns="http://www.w3.org/2000/svg" width="58.735" height="53.492"><path data-name="Path 10" d="M45.32.318c-6.477-.98-13.476 2.456-15.729 8.573a13.842 13.842 0 00-6.2-6.887C18.819-.553 14.327-.589 9.434 1.472 5.655 3.064 2.69 7.248 1.12 10.887c-1.985 4.6-.981 10.228.252 14.89a.7.7 0 001.344-.371C.658 17.629.999 9.043 8.087 3.836c3.328-2.445 9.059-3.307 12.762-1.615 3.88 1.772 7.739 5.24 8.036 9.771a.7.7 0 001.394 0c.731-8.3 10.912-12.729 18.046-9.347 7.581 3.593 10.78 13.768 8.285 21.48-1.575 4.866-7.822 3.655-11.933 3.681-2.335.015-4.67.039-7 .019-.314 0-1.605 0-1.568.023-.367-.227-1.313-3.014-1.533-3.581a.7.7 0 00-1.369.185c-.457 3.611-1.4 7.124-2.149 10.678-.725-5.976-1.022-12-2.019-17.945-.115-.687-1.2-.642-1.344 0l-2.877 12.448-1.285-5.78c-.143-.641-1.236-.688-1.344 0-.149.958-.389 3.56-1.036 4.014-.441.31-2.1-.013-2.682-.017l-7.59-.049c-2.764-.019-7.1-.569-6.982 3.576.064 2.172 2.076 4.372 3.361 5.979a38.459 38.459 0 006.428 6.168c4.818 3.769 10.192 6.688 15.4 9.872a.7.7 0 00.7 0 77.1 77.1 0 0023.73-20.214c.554-.694-.426-1.687-.985-.985a73.1 73.1 0 01-15.181 14.869c-1.868 1.293-5.956 5.01-8.279 4.689-1.092-.151-2.6-1.546-3.553-2.112a199.142 199.142 0 01-4.364-2.642 65.766 65.766 0 01-9.068-6.616c-1.675-1.5-10.035-9.508-4.526-11.212 2.079-.643 5.477.036 7.658.05l6.488.041a.714.714 0 00.672-.512c.167-.53.316-1.054.467-1.579l1.288 5.794a.7.7 0 001.344 0l2.733-11.831c.787 6.193 1.067 12.444 2.1 18.609.142.846 1.28.519 1.368-.186.529-4.2 1.723-8.273 2.491-12.43a3.118 3.118 0 002.4 2.074c3.155.513 6.851 0 10.041-.019 2.934-.02 6.83.633 9.278-1.347 2.124-1.717 2.548-4.758 2.771-7.3C59.41 11.924 54.682 1.733 45.32.318z" fill="#f23849"/></svg>