<svg xmlns="http://www.w3.org/2000/svg" width="15.309" height="15.312"><path d="M15.269 4.5a5.6 5.6 0 00-.356-1.858A3.922 3.922 0 0012.673.4a5.609 5.609 0 00-1.857-.352C9.996.009 9.736 0 7.657 0S5.318.009 4.501.045A5.6 5.6 0 002.644.4a3.736 3.736 0 00-1.358.885 3.77 3.77 0 00-.883 1.356A5.61 5.61 0 00.051 4.5C.012 5.32.003 5.58.003 7.659S.009 10 .044 10.813A5.6 5.6 0 00.4 12.671a3.922 3.922 0 002.24 2.24 5.61 5.61 0 001.858.356c.816.036 1.077.045 3.156.045s2.339-.009 3.156-.045a5.594 5.594 0 001.857-.356 3.916 3.916 0 002.24-2.24 5.614 5.614 0 00.356-1.858c.036-.817.045-1.077.045-3.156s0-2.339-.039-3.156zm-1.378 6.253a4.2 4.2 0 01-.263 1.421 2.54 2.54 0 01-1.454 1.454 4.212 4.212 0 01-1.421.263c-.808.036-1.05.045-3.093.045s-2.288-.009-3.093-.045a4.2 4.2 0 01-1.416-.263 2.356 2.356 0 01-.879-.571 2.381 2.381 0 01-.571-.879 4.212 4.212 0 01-.263-1.421c-.036-.808-.045-1.05-.045-3.093s.009-2.288.045-3.093a4.2 4.2 0 01.258-1.421 2.327 2.327 0 01.574-.879 2.377 2.377 0 01.881-.571 4.215 4.215 0 011.421-.263c.808-.036 1.05-.045 3.093-.045s2.286.008 3.086.044a4.2 4.2 0 011.421.263 2.354 2.354 0 01.879.571 2.38 2.38 0 01.571.879 4.214 4.214 0 01.263 1.421c.036.808.045 1.05.045 3.093s-.009 2.282-.045 3.09zm0 0"/><path d="M7.657 3.724a3.933 3.933 0 103.933 3.933 3.934 3.934 0 00-3.933-3.933zm0 6.485a2.551 2.551 0 112.551-2.551 2.552 2.552 0 01-2.551 2.551zm0 0M12.664 3.568a.918.918 0 11-.918-.918.918.918 0 01.918.918zm0 0"/></svg>