<svg xmlns="http://www.w3.org/2000/svg" width="36.047" height="38"><defs><style>.a{fill:#f23849}</style></defs><path class="a" d="M35.356 36.66a17.442 17.442 0 01-9.568-1.787.62.62 0 00-.471-.06c-.067.018-6.75 1.809-12.132.615-3.355-.746-6.52-3.11-8.831-4.835-.311-.232-.6-.451-.88-.653a7.057 7.057 0 00-1.506-.708c-.237-.091-.563-.215-.632-.259a.243.243 0 01-.094-.2v-1.437c.03-1.14 4.809-18.68 5.55-20.912a.481.481 0 01.142-.1l9.459-4.321 3.058 3.981a.548.548 0 01-.033.685L16.4 10.054a.538.538 0 01-.737.074l-1.226-1.125a.625.625 0 00-.538-.141.651.651 0 00-.451.344 3.392 3.392 0 01-1.971.455l-.308-.031a.622.622 0 00-.554 1c.262.339.467.612.583.768l.6 10.28a4.524 4.524 0 01-.8 1.958.622.622 0 00.187 1.214c.7 0 1.3-.926 1.785-2.734a7.6 7.6 0 019.6.079 4.916 4.916 0 011.67 2.669.622.622 0 001.243-.014c0-.143-.052-1.369-1.66-3.141a7.928 7.928 0 015.147-3.173 9.021 9.021 0 016.065 1.824.622.622 0 00.786-.963 10.136 10.136 0 00-6.99-2.1 9.085 9.085 0 00-5.95 3.583 8.835 8.835 0 00-9.894-.288l-.556-9.454a.615.615 0 00-.09-.288 4.084 4.084 0 001.7-.527l.8.738a1.781 1.781 0 002.485-.179l3.022-3.387a1.8 1.8 0 00.1-2.257L17.078.852a.622.622 0 00-.751-.187l-9.9 4.522a1.512 1.512 0 00-.8.819C5.273 7.063 0 25.869 0 27.333v1.443a1.482 1.482 0 00.57 1.175 3.929 3.929 0 00.955.442 6.769 6.769 0 011.216.55c.273.2.564.417.871.646 2.4 1.793 5.689 4.249 9.306 5.053 5.147 1.144 11.19-.239 12.485-.565a18.632 18.632 0 008.192 1.926 17.172 17.172 0 001.9-.1.621.621 0 10-.137-1.235zm0 0"/><path class="a" d="M32.314 29.13a.622.622 0 00-1.239.068c0 .415.306 1.821 4.248 2.478a.662.662 0 00.1.008.621.621 0 00.1-1.234c-2.752-.46-3.172-1.237-3.209-1.32zm0 0M25.452 7.549h1.894V9.31a.622.622 0 00.622.622h4.972a.622.622 0 00.622-.622V7.549h1.865a.622.622 0 00.488-1.007L30.926.224a.643.643 0 00-.976 0l-4.984 6.319a.622.622 0 00.488 1.007zm4.987-5.937l3.7 4.693h-1.2a.622.622 0 00-.622.622v1.762h-3.729V6.928a.622.622 0 00-.622-.622h-1.233zm0 0M33.561 11.175a.622.622 0 00-.622-.621h-4.972a.622.622 0 00-.622.621v1.865a.622.622 0 00.622.622h4.972a.622.622 0 00.622-.622zm-1.243 1.243h-3.729v-.622h3.729zm0 0M32.939 14.282h-4.972a.622.622 0 000 1.243h4.972a.622.622 0 000-1.243zm0 0M20.378 32.32c-8.141 1.743-11.623-3.826-11.768-4.064a.622.622 0 00-1.065.641 10.66 10.66 0 003.145 3.075 12.052 12.052 0 006.682 1.923 15.562 15.562 0 003.264-.359.622.622 0 00-.26-1.216zm0 0"/></svg>