<svg xmlns="http://www.w3.org/2000/svg" width="27.973" height="23.67"><defs><style>.a{fill:#f23849}</style></defs><path class="a" d="M9.683 10.755H5.917A1.607 1.607 0 014.3 9.145v-.538a4.146 4.146 0 011.261-3.043 4.147 4.147 0 013.043-1.261h1.079a1.091 1.091 0 001.076-1.076V1.076A1.091 1.091 0 009.683 0H8.607A8.387 8.387 0 005.27.681 8.526 8.526 0 00.681 5.27 8.384 8.384 0 000 8.607v11.835a3.113 3.113 0 00.941 2.287 3.114 3.114 0 002.286.941h6.456a3.214 3.214 0 003.228-3.228v-6.455a3.215 3.215 0 00-3.228-3.232zM27.033 11.7a3.113 3.113 0 00-2.29-.945h-3.766a1.607 1.607 0 01-1.614-1.614v-.538a4.3 4.3 0 014.3-4.3h1.08a1.091 1.091 0 001.076-1.076V1.076A1.091 1.091 0 0024.743 0h-1.076a8.39 8.39 0 00-3.338.681A8.528 8.528 0 0015.74 5.27a8.386 8.386 0 00-.681 3.337v11.835a3.214 3.214 0 003.228 3.228h6.456a3.214 3.214 0 003.227-3.228v-6.455a3.113 3.113 0 00-.937-2.287z"/></svg>