<svg xmlns="http://www.w3.org/2000/svg" width="19.476" height="16.587"><path d="M19.382.086a.316.316 0 00-.329-.066L.2 7.17a.3.3 0 00-.04.547l3.907 2.149 1.356 6.472a.3.3 0 00.055.125l.007.009a.312.312 0 00.194.111h.049a.314.314 0 00.163-.046.3.3 0 00.046-.034l.012-.011 2.942-2.872a.3.3 0 000-.429.316.316 0 00-.44 0L6.14 15.45l.5-4.174 7.06 3.781a.317.317 0 00.222.029l.022-.006a.309.309 0 00.174-.137l.006-.01a.3.3 0 00.02-.045L19.462.405a.3.3 0 00-.08-.319zM1.036 7.503L16.447 1.66 4.331 9.32zm5.154 3.054a.306.306 0 00-.074.084l-.007.013a.3.3 0 00-.033.111l-.431 3.6-.955-4.558L15.153 3.2zm7.486 3.8l-6.744-3.616 11.553-9.482z" fill="#f23849"/></svg>