<svg xmlns="http://www.w3.org/2000/svg" width="51.185" height="61.12"><g data-name="Group 7" fill="#f23849"><path data-name="Path 32" d="M50.93 31.96a27.175 27.175 0 00-6.222-14.555 27.492 27.492 0 011.981-2.12 3.838 3.838 0 001.1.807c.823.255 1.366-.477 1.843-1.071.535-.668 1.18-1.491.807-2.362-.433-1.012-1.861-1.875-2.676-2.552-.939-.727-2.042-1.917-3.164-2.3-1.036-.351-1.755.359-2.357 1.114-.474.594-1.044 1.085-.7 1.855a3.576 3.576 0 00.752 1.03c-.552.6-1.1 1.192-1.635 1.8a24.493 24.493 0 00-9.935-3.841 20.905 20.905 0 01-.081-1.766 4.2 4.2 0 001.367-.167c1.148-.417 1.165-.954 1.233-2.242.077-1.457.286-3.925-1.029-4.9-1.541-1.14-5.083-.552-6.84-.558-3.451.11-8.285-.949-8.484 3.586-.04.913-.333 3 .5 3.723a4.065 4.065 0 002.31.669c0 .649 0 1.3.038 1.95a.687.687 0 00.04.156 26.171 26.171 0 00-17.956 15.7C-2.091 35.753.372 48.501 8.9 55.276c3.209 2.549 6.7 4.77 10.793 5.374 6.233.921 13.14.586 18.793-2.452a27.3 27.3 0 009.734-9.276c2.859-4.705 3.366-11.597 2.71-16.962zm-6.59-22.7c.665.1 1.918 1.437 2.432 1.835a12.018 12.018 0 011.9 1.634c.5.652.08 1.447-.541 1.934a32.437 32.437 0 01-2.772-2.182 12.386 12.386 0 01-2.446-2.188c.361-.512.946-1.106 1.427-1.033zm-1 3.456c.448.337.9.647 1.267.937.327.259.656.514.984.771-.618.635-1.25 1.264-1.818 1.942a25.961 25.961 0 00-1.339-1.336c-.222-.2-.471-.373-.7-.563.516-.598 1.065-1.171 1.607-1.75zM18.272 5.541a5.29 5.29 0 010-1.81c.294-1.559 1.153-1.758 2.762-2.013a35.7 35.7 0 014.329-.18c1.3.005 2.626-.058 3.919.062 1.388.127 2.021.062 2.446 1.472a5.9 5.9 0 01.11 2.53c-.49 1.306-1.554.9-2.971.935-1.557.042-3.115.1-4.672.114-1.605.009-5.349.518-5.922-1.109zm2.809 2.608c1.021-.021 2-.1 2.632-.1 1.549 0 3.1-.061 4.648-.1.263-.007.563.005.879.022 0 .541.023 1.079.067 1.619a31.888 31.888 0 00-3.127-.239 27.853 27.853 0 00-5.065.575c-.028-.596-.03-1.186-.033-1.776zM48.55 44.713c-1.346 4.484-4.956 8.119-8.638 10.872-4.471 3.344-10.044 4.18-15.505 4.068a20.863 20.863 0 01-12.229-3.72A24.6 24.6 0 011.99 30.008a25.087 25.087 0 0124.191-19.269c11.188.229 20.141 6.988 22.8 18a31.817 31.817 0 01-.43 15.975z"/><path data-name="Path 33" d="M38.602 18.641a.788.788 0 00-.071-.036.8.8 0 00-.07-.073 21.709 21.709 0 00-25.718.206 22.623 22.623 0 00-7.781 23.861c2.272 8.128 13.088 14.727 21.233 14.23 2.567-.157 5.622-.6 7.83-1.955a33.652 33.652 0 009.68-9.409c6.047-9.03 3.093-20.432-5.103-26.824zm6.6 12.568a19.229 19.229 0 01-5.3 16.683c-2.822 3-5.817 6.029-9.928 6.929a18.162 18.162 0 01-13.118-1.566c-4.622-2.581-9.764-6.769-10.8-12.21a22.037 22.037 0 013.126-16.631c6.55-9.4 19.345-11.113 28.535-4.705 3.642 2.873 6.669 6.851 7.487 11.5z"/><path data-name="Path 34" d="M34.905 24.498q-4 4.05-7.993 8.1a2.743 2.743 0 00-3.532-.108c-1.192.952-1.687 3.361-.567 4.547a3.462 3.462 0 004.445.267 2.822 2.822 0 00.543-3.621l8.09-8.2c.63-.639-.355-1.623-.986-.985zM24.018 36.232c-.614-.461-.481-1.74-.083-2.329a1.434 1.434 0 012.338-.03.645.645 0 00.062.055.743.743 0 00.047.087c1.396 1.664-.781 3.405-2.364 2.217z"/><path data-name="Path 35" d="M17.537 20.9c-4.675 2.493-7.091 7.13-8.29 12.124-.209.872 1.134 1.244 1.344.371 1.119-4.662 3.273-8.958 7.649-11.292.792-.422.089-1.625-.703-1.203z"/><path data-name="Path 36" d="M9.57 36.27a.7.7 0 000 1.394.7.7 0 000-1.394z"/><path data-name="Path 37" d="M25.982 4.97l-.146-2c-.065-.889-1.459-.9-1.394 0l.146 2c.065.89 1.459.897 1.394 0z"/><path data-name="Path 38" d="M29.569 4.434l-.054-1.631c-.03-.894-1.424-.9-1.394 0l.054 1.631c.03.894 1.424.898 1.394 0z"/><path data-name="Path 39" d="M21.959 4.968a8.409 8.409 0 01-.064-1.794c.055-.9-1.339-.893-1.394 0a10.179 10.179 0 00.113 2.164c.131.884 1.474.508 1.345-.37z"/></g></svg>