<svg xmlns="http://www.w3.org/2000/svg" width="15" height="12.277"><path d="M5.6 12.277a12.871 12.871 0 01-1.988-.158 9.33 9.33 0 01-2.719-.99L0 10.644l.962-.316c1.052-.346 1.692-.56 2.484-.9a3.3 3.3 0 01-1.7-1.968l-.224-.68.184.028a3.338 3.338 0 01-.417-.508 3.164 3.164 0 01-.536-1.886l.042-.593.355.138a3.32 3.32 0 01-.322-.9A3.431 3.431 0 011.194.747L1.5.179l.414.5a7.614 7.614 0 004.935 2.774 2.95 2.95 0 01.179-1.567A2.935 2.935 0 018.221.518 3.583 3.583 0 0110.3.007a3.322 3.322 0 012.042.842A6.855 6.855 0 0013.09.6c.164-.062.35-.132.582-.212l.857-.3-.559 1.6.115-.007L15 1.64l-.541.739a1.187 1.187 0 00-.05.071c-.044.066-.1.147-.84 1.139a1.4 1.4 0 00-.261.91 8.612 8.612 0 01-.47 3.464 6.13 6.13 0 01-1.645 2.437 7.267 7.267 0 01-3.445 1.665 10.6 10.6 0 01-2.151.211zm0 0"/></svg>