<svg xmlns="http://www.w3.org/2000/svg" width="42.312" height="43.263"><defs><style>.a{fill:#f23849}</style></defs><path class="a" d="M21.156 16.219a4.231 4.231 0 114.231-4.231 4.236 4.236 0 01-4.231 4.231zm0-7.052a2.821 2.821 0 102.821 2.821 2.824 2.824 0 00-2.821-2.825zm0 0M26.204 21.396a.705.705 0 01-.447-1.251.7.7 0 00.163-.192l6.733-12.045a.705.705 0 10-1.216-.713l-5.9 10.561a.706.706 0 01-1.232-.689l5.909-10.569a2.116 2.116 0 113.669 2.108l-6.737 12.042a2.119 2.119 0 01-.5.588.7.7 0 01-.446.159zm0 0M6.295 43.262a2.114 2.114 0 01-1.512-3.59l7.7-8.117a.705.705 0 011.023.971L5.801 40.65a.705.705 0 101 .991l7.775-8.2a.705.705 0 011.023.971l-7.783 8.205a2.125 2.125 0 01-1.524.643zm0 0M16.34 21.393a.7.7 0 01-.448-.161 2.112 2.112 0 01-.486-.574L8.663 8.597a2.116 2.116 0 013.67-2.107l5.913 10.577a.705.705 0 01-1.231.689l-5.909-10.57a.705.705 0 00-1.217.713l6.739 12.062a.694.694 0 00.156.182.705.705 0 01-.448 1.25zm0 0M31.736 43.017a2.115 2.115 0 01-2.088-2.463l1.141-6.847-2.4-1.066a.705.705 0 01.573-1.289l2.9 1.288a.705.705 0 01.409.76l-1.23 7.385a.705.705 0 101.391.232l1.41-8.461a.7.7 0 00-.409-.76l-4.343-1.93a.705.705 0 01.573-1.289l4.343 1.93a2.116 2.116 0 011.227 2.281l-1.41 8.462a2.109 2.109 0 01-2.087 1.767zm0 0"/><path class="a" d="M16.589 35.53a.708.708 0 01-.48-.189l-4.131-3.842a.706.706 0 01.007-1.039l4.205-3.807-.672-7.211a2.466 2.466 0 012.45-2.518h6.377a2.456 2.456 0 012.453 2.453v.073l-.651 6.282 3.712 1.562a.7.7 0 01.392.883l-1.641 4.692a.705.705 0 01-.956.41l-6.2-2.806-4.339 4.824a.707.707 0 01-.493.233h-.032zm-3.088-4.54l3.043 2.83 4.205-4.675a.707.707 0 01.815-.171l5.966 2.7 1.167-3.339-3.583-1.508a.706.706 0 01-.428-.723l.7-6.76a1.044 1.044 0 00-1.042-1.011h-6.377a1.043 1.043 0 00-1.042 1.043l.7 7.5a.7.7 0 01-.229.588zm0 0M35.259 7.052H7.052a.705.705 0 010-1.41h28.207a.705.705 0 110 1.41zm0 0"/><path class="a" d="M7.052 12.693H4.937a.7.7 0 01-.705-.7V.7a.705.705 0 01.705-.7h2.115a.705.705 0 01.705.7v11.288a.7.7 0 01-.705.705zm-1.41-1.41h.705V1.41h-.705zm0 0"/><path class="a" d="M4.933 12.693H2.821a.7.7 0 01-.705-.7V.7a.705.705 0 01.705-.7h2.112a.7.7 0 01.7.705v11.283a.7.7 0 01-.7.705zm-1.411-1.41h.711V1.41h-.705zm0 0M39.491 12.693H37.38a.7.7 0 01-.7-.7V.7a.7.7 0 01.7-.7h2.116a.705.705 0 01.705.705v11.283a.7.7 0 01-.71.705zm-1.41-1.41h.705V1.41h-.706zm0 0"/><path class="a" d="M37.376 12.693H35.26a.7.7 0 01-.7-.7V.7a.7.7 0 01.7-.705h2.116a.705.705 0 01.705.705v11.288a.7.7 0 01-.705.705zm-1.41-1.41h.705V1.41h-.705zm0 0M2.821 7.052H.706a.705.705 0 110-1.41h2.115a.705.705 0 010 1.41zm0 0M41.607 7.052h-2.116a.705.705 0 010-1.41h2.116a.705.705 0 110 1.41zm0 0"/></svg>