<svg xmlns="http://www.w3.org/2000/svg" width="47.215" height="53.345"><g data-name="Group 2" fill="#f23849"><path data-name="Path 11" d="M46.834 31.597a17.227 17.227 0 00-4.515-8.558c1.825-3.093 3.859-5.676 4.229-9.433.315-3.2-.237-7.11-2.353-9.66-2.071-2.5-4.875-3.286-7.985-3.5C32.064.162 27.883.083 23.73.133 17.401.21 9.164-1.157 3.976 3.404c-2.5 2.2-3.727 5.834-3.955 9.089-.3 4.278 2.638 7.494 4.8 10.887a22.909 22.909 0 00-4.076 9.324 19.369 19.369 0 001.193 12.717 16.318 16.318 0 005.02 6.72c1.5 1.013 3.344.976 5.085 1.043 5.342.208 10.7.16 16.042.072 3.447-.057 7.686.454 11.056-.491 3.32-.932 5-4.767 6.268-7.666a24.123 24.123 0 001.425-13.502zM7.098 3.031c4.767-2.419 11.406-1.437 16.633-1.5a139.71 139.71 0 017.9.106c3.637.16 7.889-.208 10.76 2.425 2.378 2.18 3.032 5.932 2.821 9.025-.247 3.631-2.181 6.085-3.925 8.974-.227-.194-.449-.4-.683-.574a28.131 28.131 0 00-4.224-2.65c2.007-3.146 5.072-7.681.921-10.616-4.069-2.877-11.28-1.69-15.894-1.644-2.021.021-3.986.2-5.993.416-1.981.211-4.568.131-6.239 1.386-4.105 3.085-1.742 7.5.633 10.663-.419.236-.84.469-1.242.743a15.909 15.909 0 00-2.818 2.469c-1.973-3-4.427-5.879-4.271-9.66a10.953 10.953 0 015.621-9.563zm16.844 13.027c-4.369.034-8.907.484-12.89 2.344-1.688-2.155-3.836-4.97-2.025-7.728 1.413-2.151 3.835-2.019 6.046-2.253a71.777 71.777 0 017.418-.456 73.808 73.808 0 0110.6.249c2.448.352 4.6 1.374 4.727 4.212.1 2.267-1.549 3.995-2.709 5.81a27.785 27.785 0 00-11.168-2.178zm21.766 21.307a22.455 22.455 0 01-3.6 11.085c-2.561 4.082-7.52 3.281-11.749 3.372-5.049.107-10.1.157-15.149.059-3.328-.064-6.3.225-8.884-2.268-2.368-2.283-3.531-5.5-4.462-8.573-1.622-5.349.953-13.153 4.412-17.306 4.354-5.228 11.254-6.233 17.663-6.283 6.25.069 12.4 1.636 17.051 6.119 3.742 3.61 4.92 8.79 4.717 13.795z"/><path data-name="Path 12" d="M25.132 24.495a7.028 7.028 0 00-7.946 5.175c-.91 3.494.462 6.98 4.2 7.729 3.538.709 8.438-.44 9.176-4.475.659-3.617-1.785-7.694-5.43-8.429zm-2.334 11.642c-7.389-.286-4.706-11.234 1.962-10.3a5.963 5.963 0 014.5 5.637c.186 3.723-3.413 4.781-6.462 4.663z"/><path data-name="Path 13" d="M13.211 21.495a15.828 15.828 0 00-7.727 9.78.7.7 0 001.344.37 14.426 14.426 0 017.086-8.947c.784-.43.084-1.634-.703-1.203z"/><path data-name="Path 14" d="M5.368 33.866a.7.7 0 000 1.394.7.7 0 000-1.394z"/></g></svg>