<svg xmlns="http://www.w3.org/2000/svg" width="39.537" height="22.218"><path d="M38.932 7.549a2.078 2.078 0 00-1.586-.775h-.9v-.725a2.45 2.45 0 00-2.521-2.366h-1.184V2.346A2.337 2.337 0 0032 .659a2.611 2.611 0 00-3.469 0 2.337 2.337 0 00-.737 1.688v6.281H11.737V2.347A2.334 2.334 0 0011 .66a2.611 2.611 0 00-3.469 0A2.335 2.335 0 006.8 2.347v1.336H5.467a2.456 2.456 0 00-1.664.635 2.18 2.18 0 00-.715 1.6v.857H2.2a2.086 2.086 0 00-1.593.778A2.714 2.714 0 000 9.289v3.618a2.711 2.711 0 00.607 1.737 2.085 2.085 0 001.593.778h.89v.861a2.181 2.181 0 00.716 1.6 2.453 2.453 0 001.662.634H6.8v1.339a2.334 2.334 0 00.736 1.686 2.549 2.549 0 003.469 0 2.334 2.334 0 00.736-1.686v-6.287H27.8v6.281a2.334 2.334 0 00.736 1.686 2.549 2.549 0 003.469 0 2.336 2.336 0 00.736-1.686v-1.339h1.184a2.45 2.45 0 002.522-2.364v-.725h.9a2.082 2.082 0 001.587-.775 2.7 2.7 0 00.6-1.73V9.283a2.7 2.7 0 00-.602-1.734zM2.2 14.183a.846.846 0 01-.643-.334 1.493 1.493 0 01-.321-.946V9.289a1.494 1.494 0 01.321-.946.846.846 0 01.643-.334h.89v6.174H2.2zm3.268 3.089a1.234 1.234 0 01-.827-.309.929.929 0 01-.316-.686V5.916a.929.929 0 01.314-.686 1.239 1.239 0 01.828-.31H6.8v12.356zM10.5 19.85a1.08 1.08 0 01-.349.788 1.361 1.361 0 01-1.772 0 1.079 1.079 0 01-.35-.788V2.35a1.08 1.08 0 01.349-.788 1.314 1.314 0 011.773 0 1.081 1.081 0 01.349.789v17.5zm1.236-7.516V9.862H27.8v2.471zm19.768 7.516a1.08 1.08 0 01-.349.788 1.361 1.361 0 01-1.772 0 1.079 1.079 0 01-.35-.788V2.35a1.08 1.08 0 01.349-.788 1.314 1.314 0 011.773 0 1.079 1.079 0 01.349.788v17.5zm3.707-3.7a1.216 1.216 0 01-1.287 1.128h-1.183V4.92h1.184a1.217 1.217 0 011.287 1.128v10.1zm3.089-3.233a1.486 1.486 0 01-.318.939.838.838 0 01-.638.331h-.9V8.009h.9a.838.838 0 01.638.331 1.482 1.482 0 01.318.939z" fill="#f23849"/></svg>