<svg xmlns="http://www.w3.org/2000/svg" width="39.343" height="32.401"><defs><style>.a{fill:#f23849}</style></defs><path class="a" d="M34.84 25.385a.619.619 0 10.615.624.615.615 0 00-.615-.624z"/><path class="a" d="M39.343 8.063v-3.4a4.116 4.116 0 00-6.012-3.564 2.227 2.227 0 00-4.008.36l-.421 1.2a2.178 2.178 0 002.226 2.871 5.346 5.346 0 001.2 3.015 29.1 29.1 0 01-1.146 2.747c-.972 1.944-3.868 4.194-6.221 5.643a6.223 6.223 0 00-2.9-.538 5.915 5.915 0 00-2.843.866c-2.74 1.649-1.033 3.089-11.751 6.153L1.7 24.693A2.157 2.157 0 000 26.812v2.641a2.931 2.931 0 00.557 1.722.615.615 0 00.058 1.227h38.114a.615.615 0 100-1.229h-.222a3.257 3.257 0 00-2.795-2.618l-.258-.032a.616.616 0 10-1.229-.062v.6a.615.615 0 00.538.61 2.741 2.741 0 012.066.771 2.024 2.024 0 01.412.727h-3.957a.942.942 0 01-.941-.941v-13.44a.615.615 0 00-1.229 0v3.564a42.374 42.374 0 01-4.232 1.512c-7.5 2.281-9.221 3.063-18.652 4.538v-1.931c10.545-3.067 9.233-4.722 11.62-6.159a4.766 4.766 0 012.209-.69 4.951 4.951 0 012.26.357l.872 1.889a.615.615 0 001.116-.515l-.651-1.41c1.515-.943 5.317-3.5 6.623-6.107.37-.742.734-1.637 1.011-2.364a5.635 5.635 0 002.372 1.05c1.176 3.678 3.216 4.983-.207 7.5v-4.125c0-2.081-2.651-2.852-2.71-1.628a.615.615 0 00.585.643.975.975 0 01.9.984v9.654a.615.615 0 101.229 0v-4.035c2.064-1.327 3.111-2.693 3.111-4.063 0-1.834-.849-2.787-1.578-4.843a2.584 2.584 0 002.356-2.547zM1.229 26.812a.935.935 0 01.737-.919L7 24.775v1.841l-3.395.679a.615.615 0 00-.482.482l-.665 3.324a1.722 1.722 0 01-1.229-1.648zm23.028-2.854c3.423-1.061 4.619-1.37 6.856-2.276 0 9.184-.083 8.874.215 9.489H3.7l.55-2.752c10.015-2.002 9.672-1.259 20.007-4.461zm5.8-20.9l.421-1.2a.988.988 0 011.9.218.915.915 0 01-.049.386c-.43 1.219-.447 1.5-.889 1.724a.966.966 0 01-1.378-1.127zm8.052 5a1.36 1.36 0 01-1.385 1.33 4.444 4.444 0 01-2.785-.968l.531-1.319a.615.615 0 10-1.14-.459l-.311.772a4.117 4.117 0 01-.681-2.273c0-.117-.029-.025.192-.238a2.144 2.144 0 00.448-.62c.1-.206.531-1.458.561-1.568a2.31 2.31 0 00.066-.369 2.95 2.95 0 013.94.653 3.217 3.217 0 01-2.622 1.333.615.615 0 000 1.229 4.474 4.474 0 003.022-1.167c.21-.183.169-.744.169 3.669z"/></svg>